<svg width="1032" height="150" viewBox="0 0 1032 150" fill="none" xmlns="http://www.w3.org/2000/svg">
<line y1="74" x2="1032" y2="74" stroke="white" stroke-width="2"/>
<line x1="93.5" y1="75" x2="93.5" y2="23" stroke="white"/>
<circle cx="93.5" cy="14.5" r="8.5" fill="white"/>
<path d="M123.274 23V6.056H127.018V23H123.274ZM120.01 9.248V6.056H126.778V9.248H120.01ZM132.177 23L137.505 15.584L138.897 15.488C138.689 15.856 138.457 16.184 138.201 16.472C137.961 16.744 137.649 16.96 137.265 17.12C136.897 17.264 136.401 17.336 135.777 17.336C134.753 17.336 133.809 17.096 132.945 16.616C132.097 16.12 131.417 15.456 130.905 14.624C130.409 13.776 130.161 12.816 130.161 11.744C130.161 10.624 130.441 9.616 131.001 8.72C131.561 7.824 132.313 7.112 133.257 6.584C134.201 6.056 135.265 5.792 136.449 5.792C137.633 5.792 138.697 6.056 139.641 6.584C140.585 7.096 141.329 7.8 141.873 8.696C142.433 9.576 142.713 10.576 142.713 11.696C142.713 13.136 142.217 14.584 141.225 16.04L136.449 23H132.177ZM136.449 14.528C136.945 14.528 137.393 14.408 137.793 14.168C138.193 13.928 138.505 13.608 138.729 13.208C138.953 12.792 139.065 12.328 139.065 11.816C139.065 11.288 138.953 10.816 138.729 10.4C138.505 9.984 138.193 9.664 137.793 9.44C137.393 9.2 136.945 9.08 136.449 9.08C135.937 9.08 135.481 9.2 135.081 9.44C134.697 9.664 134.385 9.984 134.145 10.4C133.921 10.816 133.809 11.288 133.809 11.816C133.809 12.328 133.921 12.792 134.145 13.208C134.385 13.608 134.705 13.928 135.105 14.168C135.505 14.408 135.953 14.528 136.449 14.528ZM150.674 23.264C149.49 23.264 148.418 23 147.458 22.472C146.514 21.944 145.762 21.24 145.202 20.36C144.658 19.464 144.386 18.464 144.386 17.36C144.386 15.92 144.89 14.464 145.898 12.992L150.674 6.056H154.922L149.618 13.448L148.202 13.568C148.426 13.184 148.658 12.856 148.898 12.584C149.154 12.296 149.474 12.08 149.858 11.936C150.242 11.776 150.73 11.696 151.322 11.696C152.378 11.696 153.322 11.944 154.154 12.44C155.002 12.92 155.682 13.584 156.194 14.432C156.706 15.264 156.962 16.224 156.962 17.312C156.962 18.416 156.682 19.424 156.122 20.336C155.562 21.232 154.81 21.944 153.866 22.472C152.922 23 151.858 23.264 150.674 23.264ZM150.674 19.976C151.17 19.976 151.618 19.856 152.018 19.616C152.418 19.376 152.73 19.048 152.954 18.632C153.178 18.216 153.29 17.752 153.29 17.24C153.29 16.712 153.178 16.248 152.954 15.848C152.73 15.432 152.418 15.112 152.018 14.888C151.618 14.648 151.17 14.528 150.674 14.528C150.162 14.528 149.706 14.648 149.306 14.888C148.922 15.112 148.618 15.432 148.394 15.848C148.17 16.248 148.058 16.712 148.058 17.24C148.058 17.752 148.17 18.216 148.394 18.632C148.618 19.048 148.922 19.376 149.306 19.616C149.706 19.856 150.162 19.976 150.674 19.976ZM165.248 23.264C164.032 23.264 162.968 23.048 162.056 22.616C161.16 22.184 160.456 21.592 159.944 20.84C159.448 20.088 159.2 19.232 159.2 18.272C159.2 17.472 159.352 16.752 159.656 16.112C159.976 15.472 160.416 14.936 160.976 14.504C161.552 14.072 162.216 13.776 162.968 13.616L162.896 14.384C162.256 14.24 161.712 13.976 161.264 13.592C160.816 13.192 160.472 12.712 160.232 12.152C159.992 11.592 159.872 11.008 159.872 10.4C159.872 9.504 160.096 8.712 160.544 8.024C161.008 7.32 161.648 6.768 162.464 6.368C163.28 5.968 164.208 5.768 165.248 5.768C166.304 5.768 167.232 5.968 168.032 6.368C168.848 6.768 169.48 7.32 169.928 8.024C170.392 8.712 170.624 9.504 170.624 10.4C170.624 11.008 170.504 11.592 170.264 12.152C170.04 12.712 169.704 13.192 169.256 13.592C168.808 13.976 168.264 14.24 167.624 14.384L167.528 13.616C168.296 13.776 168.96 14.072 169.52 14.504C170.096 14.936 170.536 15.472 170.84 16.112C171.144 16.752 171.296 17.472 171.296 18.272C171.296 19.232 171.048 20.088 170.552 20.84C170.056 21.592 169.352 22.184 168.44 22.616C167.544 23.048 166.48 23.264 165.248 23.264ZM165.248 20.048C165.728 20.048 166.152 19.952 166.52 19.76C166.888 19.552 167.176 19.272 167.384 18.92C167.608 18.568 167.72 18.176 167.72 17.744C167.72 17.296 167.608 16.904 167.384 16.568C167.176 16.216 166.888 15.944 166.52 15.752C166.152 15.544 165.728 15.44 165.248 15.44C164.768 15.44 164.344 15.544 163.976 15.752C163.608 15.944 163.32 16.216 163.112 16.568C162.904 16.904 162.8 17.296 162.8 17.744C162.8 18.176 162.904 18.568 163.112 18.92C163.32 19.272 163.608 19.552 163.976 19.76C164.344 19.952 164.768 20.048 165.248 20.048ZM165.248 12.704C165.808 12.704 166.264 12.528 166.616 12.176C166.984 11.808 167.168 11.352 167.168 10.808C167.168 10.248 166.984 9.792 166.616 9.44C166.264 9.072 165.808 8.888 165.248 8.888C164.704 8.888 164.248 9.064 163.88 9.416C163.512 9.768 163.328 10.224 163.328 10.784C163.328 11.328 163.512 11.784 163.88 12.152C164.248 12.52 164.704 12.704 165.248 12.704Z" fill="white"/>
<path d="M6.264 23.24C5.16 23.24 4.176 22.976 3.312 22.448C2.464 21.92 1.792 21.2 1.296 20.288C0.816 19.376 0.576 18.336 0.576 17.168C0.576 16 0.816 14.96 1.296 14.048C1.792 13.136 2.464 12.416 3.312 11.888C4.176 11.36 5.16 11.096 6.264 11.096C7.064 11.096 7.784 11.248 8.424 11.552C9.08 11.856 9.616 12.28 10.032 12.824C10.464 13.352 10.704 13.96 10.752 14.648V19.568C10.704 20.256 10.472 20.88 10.056 21.44C9.64 21.984 9.104 22.424 8.448 22.76C7.792 23.08 7.064 23.24 6.264 23.24ZM6.912 19.928C7.44 19.928 7.896 19.816 8.28 19.592C8.664 19.352 8.968 19.024 9.192 18.608C9.416 18.192 9.528 17.712 9.528 17.168C9.528 16.624 9.416 16.152 9.192 15.752C8.984 15.336 8.68 15.008 8.28 14.768C7.896 14.528 7.448 14.408 6.936 14.408C6.424 14.408 5.968 14.528 5.568 14.768C5.184 15.008 4.872 15.336 4.632 15.752C4.408 16.168 4.296 16.64 4.296 17.168C4.296 17.696 4.408 18.168 4.632 18.584C4.856 19 5.168 19.328 5.568 19.568C5.968 19.808 6.416 19.928 6.912 19.928ZM12.984 23H9.384V19.856L9.936 17.024L9.312 14.192V5.576H12.984V23ZM22.2894 23.264C21.0254 23.264 19.8974 23.008 18.9054 22.496C17.9294 21.968 17.1614 21.24 16.6014 20.312C16.0414 19.384 15.7614 18.336 15.7614 17.168C15.7614 16 16.0334 14.96 16.5774 14.048C17.1374 13.12 17.8894 12.392 18.8334 11.864C19.7774 11.336 20.8414 11.072 22.0254 11.072C23.1774 11.072 24.1934 11.32 25.0734 11.816C25.9534 12.312 26.6414 13 27.1374 13.88C27.6494 14.76 27.9054 15.768 27.9054 16.904C27.9054 17.112 27.8894 17.336 27.8574 17.576C27.8414 17.8 27.8014 18.064 27.7374 18.368L17.6814 18.392V15.872L26.1774 15.848L24.5934 16.904C24.5774 16.232 24.4734 15.68 24.2814 15.248C24.0894 14.8 23.8014 14.464 23.4174 14.24C23.0494 14 22.5934 13.88 22.0494 13.88C21.4734 13.88 20.9694 14.016 20.5374 14.288C20.1214 14.544 19.7934 14.912 19.5534 15.392C19.3294 15.872 19.2174 16.456 19.2174 17.144C19.2174 17.832 19.3374 18.424 19.5774 18.92C19.8334 19.4 20.1854 19.776 20.6334 20.048C21.0974 20.304 21.6414 20.432 22.2654 20.432C22.8414 20.432 23.3614 20.336 23.8254 20.144C24.2894 19.936 24.6974 19.632 25.0494 19.232L27.0654 21.248C26.4894 21.92 25.7934 22.424 24.9774 22.76C24.1614 23.096 23.2654 23.264 22.2894 23.264ZM34.8859 23.288C34.1979 23.288 33.5179 23.2 32.8459 23.024C32.1899 22.848 31.5739 22.6 30.9979 22.28C30.4379 21.944 29.9579 21.56 29.5579 21.128L31.6459 19.016C32.0299 19.432 32.4859 19.76 33.0139 20C33.5419 20.224 34.1179 20.336 34.7419 20.336C35.1739 20.336 35.5019 20.272 35.7259 20.144C35.9659 20.016 36.0859 19.84 36.0859 19.616C36.0859 19.328 35.9419 19.112 35.6539 18.968C35.3819 18.808 35.0299 18.672 34.5979 18.56C34.1659 18.432 33.7099 18.296 33.2299 18.152C32.7499 18.008 32.2939 17.808 31.8619 17.552C31.4299 17.296 31.0779 16.944 30.8059 16.496C30.5339 16.032 30.3979 15.448 30.3979 14.744C30.3979 13.992 30.5899 13.344 30.9739 12.8C31.3579 12.24 31.9019 11.8 32.6059 11.48C33.3099 11.16 34.1339 11 35.0779 11C36.0699 11 36.9819 11.176 37.8139 11.528C38.6619 11.864 39.3499 12.368 39.8779 13.04L37.7899 15.152C37.4219 14.72 37.0059 14.416 36.5419 14.24C36.0939 14.064 35.6539 13.976 35.2219 13.976C34.8059 13.976 34.4939 14.04 34.2859 14.168C34.0779 14.28 33.9739 14.448 33.9739 14.672C33.9739 14.912 34.1099 15.104 34.3819 15.248C34.6539 15.392 35.0059 15.52 35.4379 15.632C35.8699 15.744 36.3259 15.88 36.8059 16.04C37.2859 16.2 37.7419 16.416 38.1739 16.688C38.6059 16.96 38.9579 17.328 39.2299 17.792C39.5019 18.24 39.6379 18.832 39.6379 19.568C39.6379 20.704 39.2059 21.608 38.3419 22.28C37.4939 22.952 36.3419 23.288 34.8859 23.288ZM47.5581 23.24C46.4541 23.24 45.4701 22.976 44.6061 22.448C43.7581 21.92 43.0861 21.2 42.5901 20.288C42.1101 19.376 41.8701 18.336 41.8701 17.168C41.8701 16 42.1101 14.96 42.5901 14.048C43.0861 13.136 43.7581 12.416 44.6061 11.888C45.4701 11.36 46.4541 11.096 47.5581 11.096C48.3581 11.096 49.0781 11.248 49.7181 11.552C50.3741 11.856 50.9101 12.28 51.3261 12.824C51.7581 13.352 51.9981 13.96 52.0461 14.648V19.568C51.9981 20.256 51.7661 20.88 51.3501 21.44C50.9341 21.984 50.3981 22.424 49.7421 22.76C49.0861 23.08 48.3581 23.24 47.5581 23.24ZM48.2061 19.928C48.7341 19.928 49.1901 19.816 49.5741 19.592C49.9581 19.352 50.2621 19.024 50.4861 18.608C50.7101 18.192 50.8221 17.712 50.8221 17.168C50.8221 16.624 50.7101 16.152 50.4861 15.752C50.2781 15.336 49.9741 15.008 49.5741 14.768C49.1901 14.528 48.7421 14.408 48.2301 14.408C47.7181 14.408 47.2621 14.528 46.8621 14.768C46.4781 15.008 46.1661 15.336 45.9261 15.752C45.7021 16.168 45.5901 16.64 45.5901 17.168C45.5901 17.696 45.7021 18.168 45.9261 18.584C46.1501 19 46.4621 19.328 46.8621 19.568C47.2621 19.808 47.7101 19.928 48.2061 19.928ZM54.2781 23H50.6781V19.856L51.2301 17.024L50.6061 14.192V5.576H54.2781V23ZM63.5835 23.264C62.3195 23.264 61.1915 23.008 60.1995 22.496C59.2235 21.968 58.4555 21.24 57.8955 20.312C57.3355 19.384 57.0555 18.336 57.0555 17.168C57.0555 16 57.3275 14.96 57.8715 14.048C58.4315 13.12 59.1835 12.392 60.1275 11.864C61.0715 11.336 62.1355 11.072 63.3195 11.072C64.4715 11.072 65.4875 11.32 66.3675 11.816C67.2475 12.312 67.9355 13 68.4315 13.88C68.9435 14.76 69.1995 15.768 69.1995 16.904C69.1995 17.112 69.1835 17.336 69.1515 17.576C69.1355 17.8 69.0955 18.064 69.0315 18.368L58.9755 18.392V15.872L67.4715 15.848L65.8875 16.904C65.8715 16.232 65.7675 15.68 65.5755 15.248C65.3835 14.8 65.0955 14.464 64.7115 14.24C64.3435 14 63.8875 13.88 63.3435 13.88C62.7675 13.88 62.2635 14.016 61.8315 14.288C61.4155 14.544 61.0875 14.912 60.8475 15.392C60.6235 15.872 60.5115 16.456 60.5115 17.144C60.5115 17.832 60.6315 18.424 60.8715 18.92C61.1275 19.4 61.4795 19.776 61.9275 20.048C62.3915 20.304 62.9355 20.432 63.5595 20.432C64.1355 20.432 64.6555 20.336 65.1195 20.144C65.5835 19.936 65.9915 19.632 66.3435 19.232L68.3595 21.248C67.7835 21.92 67.0875 22.424 66.2715 22.76C65.4555 23.096 64.5595 23.264 63.5835 23.264Z" fill="white"/>
<line x1="947.5" y1="75" x2="947.5" y2="127" stroke="white"/>
<circle cx="947.5" cy="135.5" r="8.5" transform="rotate(180 947.5 135.5)" fill="white"/>
<path d="M965.106 141.888L971.61 135.168C972.01 134.768 972.33 134.4 972.57 134.064C972.81 133.728 972.986 133.416 973.098 133.128C973.21 132.824 973.266 132.52 973.266 132.216C973.266 131.56 973.05 131.048 972.618 130.68C972.202 130.296 971.65 130.104 970.962 130.104C970.29 130.104 969.682 130.288 969.138 130.656C968.61 131.008 968.098 131.592 967.602 132.408L965.082 130.224C965.754 129.088 966.61 128.232 967.65 127.656C968.69 127.08 969.882 126.792 971.226 126.792C972.394 126.792 973.402 127.008 974.25 127.44C975.114 127.872 975.778 128.488 976.242 129.288C976.722 130.088 976.962 131.024 976.962 132.096C976.962 132.768 976.874 133.392 976.698 133.968C976.522 134.528 976.234 135.088 975.834 135.648C975.45 136.192 974.93 136.792 974.274 137.448L969.762 141.936L965.106 141.888ZM965.106 144V141.888L968.298 140.784H977.298V144H965.106ZM987.053 144.264C985.693 144.264 984.461 143.896 983.357 143.16C982.253 142.424 981.381 141.4 980.741 140.088C980.117 138.76 979.805 137.232 979.805 135.504C979.805 133.76 980.117 132.24 980.741 130.944C981.365 129.632 982.221 128.616 983.309 127.896C984.397 127.16 985.629 126.792 987.005 126.792C988.397 126.792 989.637 127.16 990.725 127.896C991.813 128.616 992.669 129.632 993.293 130.944C993.933 132.256 994.253 133.784 994.253 135.528C994.253 137.272 993.933 138.8 993.293 140.112C992.669 141.424 991.813 142.448 990.725 143.184C989.653 143.904 988.429 144.264 987.053 144.264ZM987.029 140.928C987.733 140.928 988.341 140.728 988.853 140.328C989.365 139.912 989.757 139.304 990.029 138.504C990.317 137.688 990.461 136.696 990.461 135.528C990.461 134.344 990.317 133.352 990.029 132.552C989.757 131.752 989.365 131.152 988.853 130.752C988.341 130.336 987.725 130.128 987.005 130.128C986.317 130.128 985.709 130.328 985.181 130.728C984.669 131.128 984.277 131.728 984.005 132.528C983.733 133.328 983.597 134.32 983.597 135.504C983.597 136.688 983.733 137.68 984.005 138.48C984.277 139.28 984.669 139.888 985.181 140.304C985.709 140.72 986.325 140.928 987.029 140.928ZM996.558 141.888L1003.06 135.168C1003.46 134.768 1003.78 134.4 1004.02 134.064C1004.26 133.728 1004.44 133.416 1004.55 133.128C1004.66 132.824 1004.72 132.52 1004.72 132.216C1004.72 131.56 1004.5 131.048 1004.07 130.68C1003.65 130.296 1003.1 130.104 1002.41 130.104C1001.74 130.104 1001.13 130.288 1000.59 130.656C1000.06 131.008 999.55 131.592 999.054 132.408L996.534 130.224C997.206 129.088 998.062 128.232 999.102 127.656C1000.14 127.08 1001.33 126.792 1002.68 126.792C1003.85 126.792 1004.85 127.008 1005.7 127.44C1006.57 127.872 1007.23 128.488 1007.69 129.288C1008.17 130.088 1008.41 131.024 1008.41 132.096C1008.41 132.768 1008.33 133.392 1008.15 133.968C1007.97 134.528 1007.69 135.088 1007.29 135.648C1006.9 136.192 1006.38 136.792 1005.73 137.448L1001.21 141.936L996.558 141.888ZM996.558 144V141.888L999.75 140.784H1008.75V144H996.558ZM1010.99 138.12L1016.56 127.056H1020.66L1014.98 138.12H1010.99ZM1010.99 140.232V138.12L1012.24 137.04H1024.58V140.232H1010.99ZM1018.98 144V133.512H1022.68V144H1018.98Z" fill="white"/>
<path d="M809.056 142.264C807.792 142.264 806.664 142.008 805.672 141.496C804.696 140.968 803.928 140.24 803.368 139.312C802.808 138.384 802.528 137.336 802.528 136.168C802.528 135 802.8 133.96 803.344 133.048C803.904 132.12 804.656 131.392 805.6 130.864C806.544 130.336 807.608 130.072 808.792 130.072C809.944 130.072 810.96 130.32 811.84 130.816C812.72 131.312 813.408 132 813.904 132.88C814.416 133.76 814.672 134.768 814.672 135.904C814.672 136.112 814.656 136.336 814.624 136.576C814.608 136.8 814.568 137.064 814.504 137.368L804.448 137.392V134.872L812.944 134.848L811.36 135.904C811.344 135.232 811.24 134.68 811.048 134.248C810.856 133.8 810.568 133.464 810.184 133.24C809.816 133 809.36 132.88 808.816 132.88C808.24 132.88 807.736 133.016 807.304 133.288C806.888 133.544 806.56 133.912 806.32 134.392C806.096 134.872 805.984 135.456 805.984 136.144C805.984 136.832 806.104 137.424 806.344 137.92C806.6 138.4 806.952 138.776 807.4 139.048C807.864 139.304 808.408 139.432 809.032 139.432C809.608 139.432 810.128 139.336 810.592 139.144C811.056 138.936 811.464 138.632 811.816 138.232L813.832 140.248C813.256 140.92 812.56 141.424 811.744 141.76C810.928 142.096 810.032 142.264 809.056 142.264ZM827.807 142.24C826.735 142.24 825.775 141.976 824.927 141.448C824.095 140.92 823.431 140.2 822.935 139.288C822.455 138.376 822.215 137.336 822.215 136.168C822.215 135 822.455 133.96 822.935 133.048C823.431 132.136 824.095 131.416 824.927 130.888C825.775 130.36 826.735 130.096 827.807 130.096C828.591 130.096 829.295 130.248 829.919 130.552C830.559 130.856 831.079 131.28 831.479 131.824C831.879 132.352 832.103 132.96 832.151 133.648V138.688C832.103 139.376 831.879 139.992 831.479 140.536C831.095 141.064 830.583 141.48 829.943 141.784C829.303 142.088 828.591 142.24 827.807 142.24ZM828.551 138.928C829.335 138.928 829.967 138.672 830.447 138.16C830.927 137.632 831.167 136.968 831.167 136.168C831.167 135.624 831.055 135.144 830.831 134.728C830.623 134.312 830.319 133.992 829.919 133.768C829.535 133.528 829.087 133.408 828.575 133.408C828.063 133.408 827.607 133.528 827.207 133.768C826.823 133.992 826.511 134.312 826.271 134.728C826.047 135.144 825.935 135.624 825.935 136.168C825.935 136.696 826.047 137.168 826.271 137.584C826.495 138 826.807 138.328 827.207 138.568C827.607 138.808 828.055 138.928 828.551 138.928ZM831.023 142V138.856L831.575 136.024L831.023 133.192V130.336H834.623V142H831.023ZM838.168 142V130.336H841.84V142H838.168ZM840.016 128.728C839.44 128.728 838.96 128.536 838.576 128.152C838.208 127.752 838.024 127.272 838.024 126.712C838.024 126.136 838.208 125.656 838.576 125.272C838.96 124.888 839.44 124.696 840.016 124.696C840.592 124.696 841.064 124.888 841.432 125.272C841.8 125.656 841.984 126.136 841.984 126.712C841.984 127.272 841.8 127.752 841.432 128.152C841.064 128.536 840.592 128.728 840.016 128.728ZM853.09 142V135.352C853.09 134.744 852.898 134.256 852.514 133.888C852.146 133.504 851.674 133.312 851.098 133.312C850.698 133.312 850.346 133.4 850.042 133.576C849.738 133.736 849.498 133.976 849.322 134.296C849.146 134.6 849.058 134.952 849.058 135.352L847.642 134.656C847.642 133.744 847.842 132.944 848.242 132.256C848.642 131.568 849.194 131.04 849.898 130.672C850.618 130.288 851.426 130.096 852.322 130.096C853.186 130.096 853.946 130.304 854.602 130.72C855.274 131.12 855.802 131.656 856.186 132.328C856.57 133 856.762 133.736 856.762 134.536V142H853.09ZM845.386 142V130.336H849.058V142H845.386ZM865.048 142.24C863.944 142.24 862.96 141.976 862.096 141.448C861.248 140.92 860.576 140.2 860.08 139.288C859.6 138.376 859.36 137.336 859.36 136.168C859.36 135 859.6 133.96 860.08 133.048C860.576 132.136 861.248 131.416 862.096 130.888C862.96 130.36 863.944 130.096 865.048 130.096C865.848 130.096 866.568 130.248 867.208 130.552C867.864 130.856 868.4 131.28 868.816 131.824C869.248 132.352 869.488 132.96 869.536 133.648V138.568C869.488 139.256 869.256 139.88 868.84 140.44C868.424 140.984 867.888 141.424 867.232 141.76C866.576 142.08 865.848 142.24 865.048 142.24ZM865.696 138.928C866.224 138.928 866.68 138.816 867.064 138.592C867.448 138.352 867.752 138.024 867.976 137.608C868.2 137.192 868.312 136.712 868.312 136.168C868.312 135.624 868.2 135.152 867.976 134.752C867.768 134.336 867.464 134.008 867.064 133.768C866.68 133.528 866.232 133.408 865.72 133.408C865.208 133.408 864.752 133.528 864.352 133.768C863.968 134.008 863.656 134.336 863.416 134.752C863.192 135.168 863.08 135.64 863.08 136.168C863.08 136.696 863.192 137.168 863.416 137.584C863.64 138 863.952 138.328 864.352 138.568C864.752 138.808 865.2 138.928 865.696 138.928ZM871.768 142H868.168V138.856L868.72 136.024L868.096 133.192V124.576H871.768V142ZM880.186 142.24C879.114 142.24 878.154 141.976 877.306 141.448C876.474 140.92 875.81 140.2 875.314 139.288C874.834 138.376 874.594 137.336 874.594 136.168C874.594 135 874.834 133.96 875.314 133.048C875.81 132.136 876.474 131.416 877.306 130.888C878.154 130.36 879.114 130.096 880.186 130.096C880.97 130.096 881.674 130.248 882.298 130.552C882.938 130.856 883.458 131.28 883.858 131.824C884.258 132.352 884.482 132.96 884.53 133.648V138.688C884.482 139.376 884.258 139.992 883.858 140.536C883.474 141.064 882.962 141.48 882.322 141.784C881.682 142.088 880.97 142.24 880.186 142.24ZM880.93 138.928C881.714 138.928 882.346 138.672 882.826 138.16C883.306 137.632 883.546 136.968 883.546 136.168C883.546 135.624 883.434 135.144 883.21 134.728C883.002 134.312 882.698 133.992 882.298 133.768C881.914 133.528 881.466 133.408 880.954 133.408C880.442 133.408 879.986 133.528 879.586 133.768C879.202 133.992 878.89 134.312 878.65 134.728C878.426 135.144 878.314 135.624 878.314 136.168C878.314 136.696 878.426 137.168 878.65 137.584C878.874 138 879.186 138.328 879.586 138.568C879.986 138.808 880.434 138.928 880.93 138.928ZM883.402 142V138.856L883.954 136.024L883.402 133.192V130.336H887.002V142H883.402ZM901.838 142.264C900.574 142.264 899.446 142.008 898.454 141.496C897.478 140.968 896.71 140.24 896.15 139.312C895.59 138.384 895.31 137.336 895.31 136.168C895.31 135 895.582 133.96 896.126 133.048C896.686 132.12 897.438 131.392 898.382 130.864C899.326 130.336 900.39 130.072 901.574 130.072C902.726 130.072 903.742 130.32 904.622 130.816C905.502 131.312 906.19 132 906.686 132.88C907.198 133.76 907.454 134.768 907.454 135.904C907.454 136.112 907.438 136.336 907.406 136.576C907.39 136.8 907.35 137.064 907.286 137.368L897.23 137.392V134.872L905.726 134.848L904.142 135.904C904.126 135.232 904.022 134.68 903.83 134.248C903.638 133.8 903.35 133.464 902.966 133.24C902.598 133 902.142 132.88 901.598 132.88C901.022 132.88 900.518 133.016 900.086 133.288C899.67 133.544 899.342 133.912 899.102 134.392C898.878 134.872 898.766 135.456 898.766 136.144C898.766 136.832 898.886 137.424 899.126 137.92C899.382 138.4 899.734 138.776 900.182 139.048C900.646 139.304 901.19 139.432 901.814 139.432C902.39 139.432 902.91 139.336 903.374 139.144C903.838 138.936 904.246 138.632 904.598 138.232L906.614 140.248C906.038 140.92 905.342 141.424 904.526 141.76C903.71 142.096 902.814 142.264 901.838 142.264ZM910.186 142V130.336H913.858V142H910.186ZM917.65 142V135.184C917.65 134.592 917.466 134.136 917.098 133.816C916.746 133.48 916.306 133.312 915.778 133.312C915.41 133.312 915.082 133.392 914.794 133.552C914.506 133.696 914.274 133.904 914.098 134.176C913.938 134.448 913.858 134.784 913.858 135.184L912.442 134.56C912.442 133.632 912.642 132.84 913.042 132.184C913.442 131.512 913.986 131 914.674 130.648C915.362 130.28 916.138 130.096 917.002 130.096C917.818 130.096 918.546 130.28 919.186 130.648C919.842 131.016 920.362 131.528 920.746 132.184C921.13 132.84 921.322 133.624 921.322 134.536V142H917.65ZM925.114 142V135.184C925.114 134.592 924.93 134.136 924.562 133.816C924.21 133.48 923.77 133.312 923.242 133.312C922.874 133.312 922.546 133.392 922.258 133.552C921.97 133.696 921.738 133.904 921.562 134.176C921.402 134.448 921.322 134.784 921.322 135.184L919.21 134.896C919.242 133.904 919.474 133.056 919.906 132.352C920.354 131.632 920.938 131.08 921.658 130.696C922.394 130.296 923.218 130.096 924.13 130.096C925.026 130.096 925.818 130.288 926.506 130.672C927.21 131.04 927.762 131.576 928.162 132.28C928.578 132.968 928.786 133.8 928.786 134.776V142H925.114Z" fill="white"/>
</svg>
